# xmcd
#
# Track frame offsets:
#	150
#	15370
#	29395
#	41750
#	53707
#	67350
#	81547
#	93742
#	108100
#	121425
#	136422
#	150827
#	166025
#	179865
#	192405
#	205267
#	219182
#	232595
#	246972
#	259825
#	273652
#	287140
#	300180
#	313042
#	325680
#
# Disc length: 4499 seconds
#
# Revision: 1
# Processed by: cddbd v1.5.1PL0 Copyright (c) Steve Scherf et al.
# Submitted via: audiograbber 1.83.01
#
DISCID=61119119
DTITLE=Female Blues Singers - Complete Recorded Works - 1997 - Vol 12 - M-O-P-Q
DTITLE=R (1922-1935) DOCD-5516
DYEAR=1997
DGENRE=Blues
TTITLE0=I Wish I Had Somebody
TTITLE1=Boo Hoo Blues
TTITLE2=Loving Blues
TTITLE3=Red Head Stepchild Blues
TTITLE4=That Da Da Strain
TTITLE5=T'ain't Nobody's Biz-ness If I Do
TTITLE6=Evil Minded Blues
TTITLE7=Last Go Round Blues
TTITLE8=What's The Use Of Lovin'
TTITLE9=My Doggone Lazy Man
TTITLE10=T'ain't A Doggone Thing But The Blues
TTITLE11=Body And Soul
TTITLE12=Georgia Man
TTITLE13=What A Man!
TTITLE14=A Good Man Is Hard To Find
TTITLE15=Blind Man Blues (Take 1)
TTITLE16=Blind Man Blues (Take 2)
TTITLE17=Make Me Know It (Take 2 - Test)
TTITLE18=If You Can't Hold The Man You Love
TTITLE19=Mama Is Waiting For You
TTITLE20=Mine's Just As Good As Yours
TTITLE21=Black Snake Blues
TTITLE22=Soul And Body (He Belongs To Me)
TTITLE23=Indiana Avenue Blues
TTITLE24=Louisville Lou (The Vampin' Lady)
EXTD=Document Records, Austria
EXTT0=
EXTT1=
EXTT2=
EXTT3=
EXTT4=
EXTT5=
EXTT6=
EXTT7=
EXTT8=
EXTT9=
EXTT10=
EXTT11=
EXTT12=
EXTT13=
EXTT14=
EXTT15=
EXTT16=
EXTT17=
EXTT18=
EXTT19=
EXTT20=
EXTT21=
EXTT22=
EXTT23=
EXTT24=
PLAYORDER=
